<svg width="74" height="74" viewBox="0 0 74 74" fill="none" xmlns="http://www.w3.org/2000/svg">
<g clip-path="url(#clip0)">
<path fill-rule="evenodd" clip-rule="evenodd" d="M74.0008 73.1161H0.884766V0H74.0008V73.1161ZM50.4087 57.4327C51.0637 57.8988 51.9045 58.0145 52.657 57.7282C53.4065 57.4448 53.9609 56.802 54.1285 56.0221C55.8924 47.7295 60.1758 26.7331 61.7813 19.1899C61.9001 18.6202 61.699 18.0292 61.2543 17.6484C60.8064 17.2706 60.1849 17.1609 59.6335 17.3651C51.1185 20.5151 24.8912 30.3553 14.1706 34.3249C13.4912 34.5748 13.0494 35.2298 13.0708 35.9487C13.0951 36.6647 13.5795 37.2892 14.2741 37.4994C19.0815 38.9343 25.3939 40.9359 25.3939 40.9359C25.3939 40.9359 28.3398 49.8438 29.8783 54.3709C30.0703 54.9406 30.5181 55.3885 31.103 55.5408C31.691 55.6931 32.3125 55.5347 32.7512 55.1204C35.2219 52.7898 39.0392 49.1858 39.0392 49.1858C39.0392 49.1858 46.2929 54.505 50.4087 57.4327ZM28.0474 39.8117L31.4564 51.0594L32.215 43.9367C32.215 43.9367 45.3881 32.0553 52.9007 25.2799C53.1201 25.0819 53.1506 24.7498 52.9678 24.5152C52.785 24.2806 52.4529 24.2258 52.2031 24.3842C43.4992 29.9441 28.0474 39.8117 28.0474 39.8117Z" fill="#EC6133"/>
</g>
<defs>
<clipPath id="clip0">
<rect x="0.884766" width="73.1161" height="73.1161" fill="white"/>
</clipPath>
</defs>
</svg>
