<svg width="74" height="74" viewBox="0 0 74 74" fill="none" xmlns="http://www.w3.org/2000/svg">
<g clip-path="url(#clip0)">
<path d="M0.425781 0V73.1161H75.5728V0H0.425781ZM60.7 51.7784H54.0213C50.2483 51.7784 49.6064 49.6854 46.5003 46.6633C43.6917 43.9306 42.1355 46.0266 42.1981 49.9169C42.2169 50.9497 41.694 51.7784 40.4259 51.7784C36.4682 51.7784 30.7821 52.3206 25.027 46.2764C19.1311 40.0828 12.9503 27.6592 12.9503 26.4345C12.9503 25.7125 13.564 25.3865 14.591 25.3865H21.3855C23.1828 25.3865 23.3362 26.2517 23.8372 27.3637C25.9257 31.9974 30.9292 41.2984 32.2599 36.1071C33.0239 33.1277 33.3371 26.2212 30.0588 25.6272C28.1989 25.2921 31.474 23.3545 36.2208 23.3545C37.4013 23.3545 38.6819 23.4794 39.9938 23.7719C42.4017 24.3172 42.4079 25.3652 42.3766 26.8976C42.2545 32.6951 41.5343 36.5976 43.1062 37.5816C44.606 38.5261 48.5512 32.3508 50.6303 27.5861C51.2033 26.2669 51.3191 25.3865 52.9316 25.3865H61.2448C65.5939 25.3865 60.6749 31.4704 56.9144 36.2229C53.8835 40.0463 54.0463 40.1224 57.5657 43.303C60.0769 45.5696 63.0452 48.6648 63.0452 50.4196C63.0483 51.2483 62.3845 51.7784 60.7 51.7784Z" fill="#EC6133"/>
</g>
<defs>
<clipPath id="clip0">
<rect x="0.425781" width="75.147" height="73.1161" fill="white"/>
</clipPath>
</defs>
</svg>
